TITLE ""
FILE "1Q_t_0969-0978.mp3" MP3
  TRACK 01 AUDIO
    TITLE "1Q_t_0969-0978_01"
    INDEX 01 00:00:00
  TRACK 02 AUDIO
    TITLE "1Q_t_0969-0978_02"
    INDEX 01 00:01:14
  TRACK 03 AUDIO
    TITLE "1Q_t_0969-0978_03"
    INDEX 01 00:01:23
  TRACK 04 AUDIO
    TITLE "1Q_t_0969-0978_04"
    INDEX 01 00:02:43
  TRACK 05 AUDIO
    TITLE "1Q_t_0969-0978_05"
    INDEX 01 00:02:48
  TRACK 06 AUDIO
    TITLE "1Q_t_0969-0978_06"
    INDEX 01 00:07:26
  TRACK 07 AUDIO
    TITLE "1Q_t_0969-0978_07"
    INDEX 01 00:07:71
  TRACK 08 AUDIO
    TITLE "1Q_t_0969-0978_08"
    INDEX 01 00:09:19
  TRACK 09 AUDIO
    TITLE "1Q_t_0969-0978_09"
    INDEX 01 00:09:29
  TRACK 10 AUDIO
    TITLE "1Q_t_0969-0978_10"
    INDEX 01 00:12:21
  TRACK 11 AUDIO
    TITLE "1Q_t_0969-0978_11"
    INDEX 01 00:12:27
  TRACK 12 AUDIO
    TITLE "1Q_t_0969-0978_12"
    INDEX 01 00:18:36
  TRACK 13 AUDIO
    TITLE "1Q_t_0969-0978_13"
    INDEX 01 00:19:06
  TRACK 14 AUDIO
    TITLE "1Q_t_0969-0978_14"
    INDEX 01 00:20:03
  TRACK 15 AUDIO
    TITLE "1Q_t_0969-0978_15"
    INDEX 01 00:20:11
  TRACK 16 AUDIO
    TITLE "1Q_t_0969-0978_16"
    INDEX 01 00:23:37
  TRACK 17 AUDIO
    TITLE "1Q_t_0969-0978_17"
    INDEX 01 00:23:43
  TRACK 18 AUDIO
    TITLE "1Q_t_0969-0978_18"
    INDEX 01 00:30:39
  TRACK 19 AUDIO
    TITLE "1Q_t_0969-0978_19"
    INDEX 01 00:31:11
  TRACK 20 AUDIO
    TITLE "1Q_t_0969-0978_20"
    INDEX 01 00:32:24
  TRACK 21 AUDIO
    TITLE "1Q_t_0969-0978_21"
    INDEX 01 00:32:34
  TRACK 22 AUDIO
    TITLE "1Q_t_0969-0978_22"
    INDEX 01 00:33:43
  TRACK 23 AUDIO
    TITLE "1Q_t_0969-0978_23"
    INDEX 01 00:33:49
  TRACK 24 AUDIO
    TITLE "1Q_t_0969-0978_24"
    INDEX 01 00:38:70
  TRACK 25 AUDIO
    TITLE "1Q_t_0969-0978_25"
    INDEX 01 00:39:42
  TRACK 26 AUDIO
    TITLE "1Q_t_0969-0978_26"
    INDEX 01 00:40:59
  TRACK 27 AUDIO
    TITLE "1Q_t_0969-0978_27"
    INDEX 01 00:40:69
  TRACK 28 AUDIO
    TITLE "1Q_t_0969-0978_28"
    INDEX 01 00:42:64
  TRACK 29 AUDIO
    TITLE "1Q_t_0969-0978_29"
    INDEX 01 00:42:71
  TRACK 30 AUDIO
    TITLE "1Q_t_0969-0978_30"
    INDEX 01 00:47:04
  TRACK 31 AUDIO
    TITLE "1Q_t_0969-0978_31"
    INDEX 01 00:47:51
  TRACK 32 AUDIO
    TITLE "1Q_t_0969-0978_32"
    INDEX 01 00:48:52
  TRACK 33 AUDIO
    TITLE "1Q_t_0969-0978_33"
    INDEX 01 00:48:60
  TRACK 34 AUDIO
    TITLE "1Q_t_0969-0978_34"
    INDEX 01 00:51:72
  TRACK 35 AUDIO
    TITLE "1Q_t_0969-0978_35"
    INDEX 01 00:52:05
  TRACK 36 AUDIO
    TITLE "1Q_t_0969-0978_36"
    INDEX 01 00:58:74
  TRACK 37 AUDIO
    TITLE "1Q_t_0969-0978_37"
    INDEX 01 00:59:44
  TRACK 38 AUDIO
    TITLE "1Q_t_0969-0978_38"
    INDEX 01 01:00:58
  TRACK 39 AUDIO
    TITLE "1Q_t_0969-0978_39"
    INDEX 01 01:00:65
  TRACK 40 AUDIO
    TITLE "1Q_t_0969-0978_40"
    INDEX 01 01:03:66
  TRACK 41 AUDIO
    TITLE "1Q_t_0969-0978_41"
    INDEX 01 01:04:01
  TRACK 42 AUDIO
    TITLE "1Q_t_0969-0978_42"
    INDEX 01 01:08:36
  TRACK 43 AUDIO
    TITLE "1Q_t_0969-0978_43"
    INDEX 01 01:09:06
  TRACK 44 AUDIO
    TITLE "1Q_t_0969-0978_44"
    INDEX 01 01:10:32
  TRACK 45 AUDIO
    TITLE "1Q_t_0969-0978_45"
    INDEX 01 01:10:38
  TRACK 46 AUDIO
    TITLE "1Q_t_0969-0978_46"
    INDEX 01 01:12:39
  TRACK 47 AUDIO
    TITLE "1Q_t_0969-0978_47"
    INDEX 01 01:12:45
  TRACK 48 AUDIO
    TITLE "1Q_t_0969-0978_48"
    INDEX 01 01:17:27
  TRACK 49 AUDIO
    TITLE "1Q_t_0969-0978_49"
    INDEX 01 01:17:74
  TRACK 50 AUDIO
    TITLE "1Q_t_0969-0978_50"
    INDEX 01 01:19:16
  TRACK 51 AUDIO
    TITLE "1Q_t_0969-0978_51"
    INDEX 01 01:19:27
  TRACK 52 AUDIO
    TITLE "1Q_t_0969-0978_52"
    INDEX 01 01:24:09
  TRACK 53 AUDIO
    TITLE "1Q_t_0969-0978_53"
    INDEX 01 01:24:17
  TRACK 54 AUDIO
    TITLE "1Q_t_0969-0978_54"
    INDEX 01 01:28:19
  TRACK 55 AUDIO
    TITLE "1Q_t_0969-0978_55"
    INDEX 01 01:28:68
  TRACK 56 AUDIO
    TITLE "1Q_t_0969-0978_56"
    INDEX 01 01:30:10
  TRACK 57 AUDIO
    TITLE "1Q_t_0969-0978_57"
    INDEX 01 01:30:18
  TRACK 58 AUDIO
    TITLE "1Q_t_0969-0978_58"
    INDEX 01 01:32:20
  TRACK 59 AUDIO
    TITLE "1Q_t_0969-0978_59"
    INDEX 01 01:32:28
  TRACK 60 AUDIO
    TITLE "1Q_t_0969-0978_60"
    INDEX 01 01:38:13
